<?xml version="1.0"?>
<svg xmlns="http://www.w3.org/2000/svg" viewBox="0 0 24 24">
    <path d="M 17.25 2.03125 C 16.584412 2.1346094 15.989 2.926875 15.84375 3.9375 L 15.03125 9.5625 C 16.04825 9.4275 17.08425 9.355 17.90625 9.5 L 18.65625 4.34375 C 18.82125 3.18975 18.30325 2.14225 17.53125 2.03125 C 17.434625 2.017375 17.345084 2.0164844 17.25 2.03125 z M 10.1875 2.53125 C 10.091402 2.5356387 9.998125 2.561 9.90625 2.59375 C 9.17125 2.85475 8.89025 3.9635 9.28125 5.0625 L 11.21875 10.53125 C 11.34375 10.40525 11.49325 10.296 11.65625 10.25 C 12.24325 10.083 13.0565 9.88375 13.9375 9.71875 L 11.9375 4.09375 C 11.595375 3.132125 10.860184 2.5005293 10.1875 2.53125 z M 7.75 9.28125 C 7.449875 9.257375 7.122 9.3515 6.875 9.5625 C 6.381 9.9835 6.328 10.72375 6.75 11.21875 L 9.0625 13.9375 C 9.4835 14.4315 10.22475 14.4845 10.71875 14.0625 C 11.21275 13.6405 11.26575 12.90125 10.84375 12.40625 L 8.53125 9.6875 C 8.32075 9.44 8.050125 9.305125 7.75 9.28125 z M 16.59375 10.5 C 15.241734 10.478859 13.48875 10.881 12.46875 11.0625 C 11.90675 11.1625 11.603 11.79175 11.75 12.34375 C 11.891 12.87375 12.42075 13.134 12.96875 13.125 C 13.76375 13.111 16.0625 13.0625 16.0625 13.0625 L 16.15625 14.3125 C 16.15625 14.3125 11.8295 16.20425 12.9375 19.03125 C 10.5535 16.10925 15 13.9375 15 13.9375 C 15 13.9375 13.61475 14.13625 13.46875 14.15625 C 12.94975 14.22725 12.16075 14.10975 11.96875 13.84375 C 11.89975 14.26675 11.71475 14.59025 11.34375 14.90625 C 10.94575 15.24525 10.456 15.399 10 15.375 C 10.276 16.031 10.0715 16.86625 9.4375 17.40625 C 8.6735 18.05725 7.46875 17.83375 6.96875 17.09375 C 6.628555 16.590768 5.9810634 15.388681 5.65625 14.78125 L 7.1875 16.5625 C 7.6095 17.0565 8.34975 17.1085 8.84375 16.6875 C 9.33775 16.2655 9.39075 15.52525 8.96875 15.03125 L 7.4375 13.25 C 7.0155 12.756 6.27525 12.703 5.78125 13.125 C 4.05225 14.245 5.187 17.68125 5.875 18.78125 C 7.213 20.92325 8.9145 22.149 12.1875 22 C 15.4865 21.85 17.36525 20.55425 18.40625 16.65625 C 18.96625 14.56025 19.62125 11.4065 17.78125 10.6875 C 17.4595 10.56175 17.044422 10.507047 16.59375 10.5 z"/>
</svg>
