<svg width="242" height="60" viewBox="0 0 399 83" fill="none" xmlns="http://www.w3.org/2000/svg">
<path fill-rule="evenodd" clip-rule="evenodd" d="M91.9615 1.8785C89.386 3.62 78.591 13.041 78.2995 13.801C77.768 15.186 77.9695 57.1505 78.5215 60.138C79.279 64.234 84.8975 79.554 86.127 80.875C87.137 81.96 87.4905 82 96.0195 82C106.104 82 104.419 82.6155 112.051 76.146C114.417 74.1405 116.482 72.5 116.641 72.5C116.799 72.5 117.292 73.794 117.736 75.375C118.942 79.6705 119.542 80.9875 120.535 81.519C121.03 81.7835 125.392 82 130.23 82H139.025L145.943 76.227C149.747 73.052 153.14 69.846 153.481 69.102C153.823 68.3585 155.485 64.0375 157.175 59.5L160.249 51.25L160.396 27.179L160.544 3.1075L159.205 2.054C157.957 1.072 157.259 1 149 1C138.797 1 140.873 0.16 131.432 8.109C128.232 10.803 125.479 13.512 125.314 14.1285C125.149 14.7455 125.01 17.444 125.007 20.125L125 25H123.217C121.013 25 119.958 25.537 116.625 28.357L114 30.5775V17.016V3.4545L112.772 2.2275C111.559 1.0135 111.445 1 102.397 1.0035C94.5285 1.006 93.07 1.1285 91.9615 1.8785ZM182.25 1.9475C181.425 2.466 178.05 5.2255 174.75 8.079L168.75 13.2675L168.622 46.66C168.535 69.1095 168.664 80.3715 169.014 81.026C169.505 81.943 170.139 82 179.816 82H190.098L196.58 76.6655C200.145 73.731 203.386 70.8685 203.781 70.304C204.308 69.5525 204.5 67.701 204.5 63.3885C204.5 58.001 204.912 56.246 205.697 58.291C205.864 58.726 206 63.866 206 69.7135C206 79.378 206.083 80.4205 206.915 81.1725C207.701 81.884 209.217 82 217.714 82H227.6L234.533 76.223C240.17 71.525 241.52 70.147 241.762 68.848C241.925 67.969 241.99 60.275 241.904 51.75L241.75 36.25L240.407 33.705C238.786 30.634 236.26 28.314 233.668 27.515C232.613 27.19 231.486 26.8425 231.165 26.743C230.796 26.629 232.416 22.376 235.54 15.2585C238.268 9.042 240.5 3.7405 240.5 3.4775C240.5 3.215 240.05 2.55 239.5 2C238.572 1.0725 237.834 1 229.32 1C220.293 1 220.108 1.0215 218.252 2.281C216.04 3.782 206.646 11.6925 205.375 13.125C204.535 14.0715 204.5 13.8995 204.5 8.7825C204.5 3.7925 204.422 3.3765 203.273 2.2275C202.059 1.0135 201.945 1 192.898 1.002C184.798 1.0035 183.578 1.112 182.25 1.9475ZM112.085 2.8275C112.939 3.6005 113 4.8605 113 21.9275C113 31.9775 113.185 39.9865 113.412 39.725C113.638 39.4635 115.043 36.5755 116.533 33.3065C118.126 29.8145 119.709 27.0585 120.372 26.624C121.971 25.576 127.316 25.2665 129.75 26.081C131.661 26.7205 131.898 27.048 135.089 33.5L138.428 40.25L138.464 22.0395C138.496 5.828 138.591 3.7285 139.327 2.9145C140.07 2.094 141.068 2 149.042 2C156.454 2 158.059 2.1305 158.714 2.7855C159.405 3.477 159.499 6.312 159.497 26.4105C159.495 41.0075 159.302 49.972 158.96 51.25C157.871 55.334 152.79 68.632 151.875 69.7955C150.943 70.9805 150.794 71 142.769 71C135.563 71 134.477 70.8915 133.464 70.071C132.589 69.3625 131.714 67.0145 129.783 60.196C127.381 51.713 127.183 51.242 125.957 51.0995C125.246 51.017 124.39 51.28 124.055 51.684C123.719 52.088 122.352 56.1665 121.015 60.7475C119.679 65.3285 118.194 69.5095 117.715 70.0385C116.924 70.912 116.102 71 108.728 71C101.741 71 100.46 70.878 99.533 70.125C98.8555 69.575 97.21 65.908 95.1025 60.25L91.75 51.25L91.6025 27.433C91.47 6.0425 91.5375 3.534 92.2635 2.808C93.483 1.5885 110.735 1.605 112.085 2.8275ZM202.585 2.8275C203.423 3.585 203.5 4.662 203.5 15.5775V27.5H205.43H207.36L212.545 15.696C215.897 8.063 218.155 3.5575 218.932 2.946C220.012 2.096 221.067 2 229.3 2C237.865 2 238.499 2.0635 238.985 2.972C239.408 3.762 238.569 6.0785 234.503 15.3435C231.751 21.6135 229.5 26.891 229.5 27.072C229.5 27.2525 230.605 27.6655 231.956 27.9895C234.897 28.695 238.08 31.258 239.642 34.1785C240.711 36.178 240.755 36.823 240.9 52.6825C241.037 67.5995 240.972 69.2015 240.198 70.0575C239.42 70.917 238.52 71 229.984 71C221.893 71 220.53 70.888 219.936 70.1745C219.417 69.5505 219.189 66.6 219 58.0635L218.75 46.7775L217.5 46.146C216.691 45.7375 214.003 45.512 209.875 45.5075L203.5 45.5V57.3355C203.5 67.647 203.394 69.289 202.673 70.0855C201.927 70.91 200.916 71 192.434 71C183.1 71 183.017 70.9905 182.251 69.8215C181.571 68.7835 181.495 64.747 181.615 36.031C181.746 4.4085 181.78 3.3975 182.721 2.7095C183.474 2.159 185.707 2 192.681 2C200.345 2 201.806 2.122 202.585 2.8275ZM102.112 29L102.026 47.75L103.466 54.1585C104.945 60.7415 105.841 62.5055 107.702 62.493C110.686 62.4735 110.892 62.207 116.334 51.3085C119.233 45.5015 121.954 40.356 122.38 39.875C123.218 38.928 127.178 38.653 128.442 39.454C128.823 39.6955 131.636 44.8105 134.693 50.8215C140.603 62.4435 141.126 63.0785 144.165 62.316C145.88 61.8855 146.198 61.203 147.831 54.4535C149.193 48.8235 149.213 48.504 149.383 29.625C149.501 16.4395 149.391 10.5 149.027 10.5C148.667 10.5 148.498 16.255 148.492 28.625L148.484 46.75L147.005 53.433C146.192 57.1085 145.268 60.4275 144.952 60.808C144.34 61.5455 142.123 61.7275 141.186 61.1175C140.875 60.9155 138.332 56.171 135.533 50.5745C132.735 44.9785 129.905 39.8595 129.245 39.1995C128.308 38.263 127.513 38 125.618 38C124.283 38 122.79 38.293 122.301 38.651C121.811 39.009 118.899 44.2405 115.83 50.276C110.539 60.6805 110.172 61.257 108.75 61.3805C107.925 61.452 106.934 61.305 106.549 61.054C106.164 60.803 105.18 57.819 104.364 54.4235C102.896 48.321 102.875 48.032 102.538 29.25L102.197 10.25L102.112 29ZM192.375 10.791C191.786 11.381 191.91 62.5 192.5 62.5C192.82 62.5 193 57.902 193 49.706V36.912L208.125 37.096C224.558 37.296 225.421 37.4315 228 40.2245C229.238 41.566 229.251 41.6725 229.403 52.039C229.498 58.5775 229.743 62.5 230.056 62.5C230.378 62.5 230.501 58.7805 230.403 52.035C230.262 42.397 230.169 41.459 229.221 40.16C227.54 37.857 224.471 36.612 219.523 36.225L215.117 35.88L220.555 23.3525C225.318 12.3765 226.386 9.4475 225.191 10.642C225.021 10.812 222.477 16.5305 219.536 23.3505L214.191 35.75L203.604 35.885L193.017 36.02L192.883 23.218C192.81 16.1765 192.581 10.5845 192.375 10.791ZM34.6195 50.876C30.9725 60.7065 27.991 68.919 27.9945 69.125C27.9975 69.331 29.181 69.497 30.625 69.4935L33.25 69.4875L39.8765 51.6185C43.521 41.791 46.5025 33.581 46.5015 33.375C46.5005 33.169 45.319 33.0005 43.875 33.001L41.25 33.0015L34.6195 50.876ZM13.5 43.495L1.24999 48.392L1.10649 51.321L0.962494 54.25L13.044 59C19.689 61.6125 25.3345 63.829 25.5895 63.9255C25.851 64.0245 25.987 62.8575 25.9015 61.2455L25.75 58.39L17.407 55.0605C12.8185 53.229 8.922 51.5885 8.7485 51.4155C8.575 51.242 12.292 49.5845 17.0085 47.732C21.7245 45.88 25.6905 44.085 25.8215 43.7435C25.9525 43.4025 25.99 42.105 25.905 40.8605L25.75 38.5975L13.5 43.495ZM48.501 41.379L48.5015 44.25L57.297 47.6785C62.135 49.5645 65.903 51.2745 65.6715 51.479C65.4395 51.683 61.65 53.2675 57.25 55C52.85 56.7325 49.0685 58.309 48.8465 58.5035C48.6245 58.698 48.512 60.009 48.5965 61.417L48.75 63.977L61 59.094L73.25 54.2105V51.3065V48.4025L63 44.301C57.3625 42.0455 51.794 39.819 50.625 39.354L48.5 38.508L48.501 41.379Z" fill="black"/>
</svg>
