<svg width="101" height="31" viewBox="0 0 101 31" fill="none" xmlns="http://www.w3.org/2000/svg">
<path fill-rule="evenodd" clip-rule="evenodd" d="M1.29841 0.0460491C0.931971 0.120148 0.292032 0.745115 0.123561 1.19338C-0.0506139 1.65702 -0.0361457 29.4716 0.138586 29.9376C0.214265 30.1398 0.442557 30.4614 0.645807 30.6525L1.0153 31L15.3589 30.9955C30.9995 30.9907 29.9335 31.0473 30.4902 30.1907C30.7314 29.8195 30.744 29.106 30.7448 15.6371C30.7459 0.111538 30.7854 0.861697 29.9339 0.275119C29.5829 0.0333466 28.8246 0.0188091 15.582 0.00243691C7.89229 -0.00716061 1.46465 0.0124578 1.29841 0.0460491ZM34.5647 0.476243C34.6156 0.610891 36.7274 7.20029 39.2574 15.1195C41.7875 23.0387 43.9145 29.6291 43.9842 29.765C44.0877 29.967 44.3016 30.012 45.1564 30.012H46.202L46.3851 29.5533C46.4858 29.3011 48.2766 24.1406 50.3648 18.0857C52.4529 12.0308 54.2035 7.02725 54.2548 6.9667C54.3063 6.90629 56.1188 11.9556 58.2828 18.1873C60.4469 24.4192 62.2752 29.6291 62.3458 29.765C62.4507 29.9667 62.6655 30.012 63.5158 30.012C64.4628 30.012 64.5695 29.9832 64.6932 29.6945C64.885 29.2459 74.0112 0.515198 74.0112 0.359521C74.0112 0.289092 73.2312 0.231507 72.2777 0.231507H70.5442L69.0663 4.85384C68.2536 7.39619 66.9012 11.6356 66.0613 14.2749C63.7316 21.5946 63.4144 22.5545 63.3482 22.4873C63.3145 22.453 61.5433 17.4475 59.4121 11.3636L55.5373 0.302077L54.3057 0.26284L53.0741 0.223462L51.9108 3.57963C47.244 17.0434 45.2962 22.5279 45.2154 22.4315C45.1377 22.3388 42.6947 14.716 38.8581 2.5956L38.1098 0.231507H36.291C34.6224 0.231507 34.4798 0.25169 34.5647 0.476243ZM77.9065 15.1218V30.012H79.6455H81.3845V25.4133V20.8145L83.4861 18.4974C84.6419 17.2231 85.6299 16.1803 85.6817 16.1803C85.7334 16.1803 87.9647 18.8625 90.6404 22.1409C93.3159 25.4192 95.8678 28.5313 96.3113 29.0568L97.1178 30.012H99.0589C100.126 30.012 101 29.9623 101 29.9015C101 29.8407 98.0577 26.1871 94.4615 21.7823C90.8653 17.3775 87.923 13.7382 87.923 13.6947C87.923 13.6158 98.0485 2.37387 99.385 0.968822L100.093 0.224168L97.8619 0.263122L95.6306 0.302077L88.5423 8.20408L81.454 16.1061L81.4181 8.16879L81.3821 0.231507H79.6444H77.9065V15.1218ZM29.6637 1.04701L29.9806 1.36853V15.5452V29.7218L29.6637 30.0434L29.347 30.3649L15.8911 30.4069C8.49049 30.4299 2.1658 30.4096 1.83623 30.3618C1.35823 30.2922 1.18238 30.1838 0.967307 29.8257C0.70521 29.3897 0.69742 28.9835 0.697002 15.5871C0.696585 5.00034 0.736094 1.7091 0.867004 1.41765C1.2173 0.637425 0.74625 0.660572 15.6129 0.694305L29.347 0.725497L29.6637 1.04701ZM17.6956 6.68019C17.6235 6.82062 16.3889 10.8605 14.9518 15.6574C12.9407 22.3707 12.377 24.4175 12.5036 24.546C12.6174 24.6614 12.7365 24.6693 12.8892 24.5715C13.1223 24.4223 18.3968 7.11631 18.3283 6.72549C18.2741 6.41569 17.847 6.38492 17.6956 6.68019ZM7.4773 11.9118C5.58419 13.8337 4.03526 15.4697 4.03526 15.5473C4.03526 15.6249 5.58795 17.2627 7.48565 19.1869C10.0866 21.8241 10.9942 22.6627 11.1723 22.5934C11.3022 22.5428 11.4085 22.4283 11.4085 22.339C11.4085 22.2496 9.96861 20.7167 8.20878 18.9325C6.44895 17.1484 5.00908 15.6251 5.00908 15.5474C5.00908 15.4698 6.46007 13.9332 8.2334 12.1328C11.023 9.30087 11.4332 8.82975 11.2769 8.6385C11.1775 8.51698 11.0564 8.41762 11.0078 8.41762C10.9593 8.41762 9.37055 9.99006 7.4773 11.9118ZM19.4698 8.6385C19.3134 8.82975 19.7237 9.30087 22.5132 12.1328C24.2866 13.9332 25.7376 15.4688 25.7376 15.5452C25.7376 15.6215 24.2834 17.1604 22.5061 18.9647C19.434 22.0836 19.2867 22.2575 19.5171 22.4914C19.7474 22.7251 19.9308 22.5634 23.2354 19.2128C25.1471 17.2744 26.7114 15.6239 26.7114 15.5452C26.7114 15.3939 19.8848 8.41762 19.7367 8.41762C19.6893 8.41762 19.5691 8.51698 19.4698 8.6385Z" fill="black"/>
</svg>
