<svg width="102" height="30" viewBox="0 0 102 30" fill="none" xmlns="http://www.w3.org/2000/svg">
<path fill-rule="evenodd" clip-rule="evenodd" d="M1.30766 0.0445637C0.938613 0.116272 0.294113 0.721079 0.124442 1.15488C-0.0509746 1.60357 -0.0364033 28.5209 0.139573 28.9719C0.215792 29.1675 0.445711 29.4788 0.65041 29.6637L1.02254 30L15.4683 29.9956C31.2204 29.991 30.1468 30.0458 30.7075 29.2168C30.9505 28.8576 30.9631 28.1671 30.9639 15.1326C30.965 0.10794 31.0048 0.8339 30.1472 0.266244C29.7937 0.0322709 29.03 0.0182024 15.693 0.0023583C7.94853 -0.00692962 1.47509 0.012056 1.30766 0.0445637ZM35.0912 0.460881C35.1425 0.591185 37.2694 6.96802 39.8174 14.6318C42.3655 22.2955 44.5077 28.6733 44.5778 28.8049C44.6821 29.0003 44.8976 29.0439 45.7584 29.0439H46.8115L46.9958 28.6C47.0973 28.3559 48.9009 23.3619 51.0039 17.5023C53.107 11.6427 54.87 6.80057 54.9217 6.74197C54.9735 6.68351 56.799 11.5699 58.9784 17.6006C61.1579 23.6315 62.9992 28.6733 63.0704 28.8049C63.176 29 63.3923 29.0439 64.2487 29.0439C65.2024 29.0439 65.3099 29.016 65.4344 28.7366C65.6276 28.3025 74.8189 0.498579 74.8189 0.347923C74.8189 0.279766 74.0333 0.224039 73.073 0.224039H71.3271L69.8388 4.69726C69.0202 7.1576 67.6582 11.2603 66.8123 13.8144C64.466 20.898 64.1466 21.8269 64.0799 21.7619C64.046 21.7287 62.2621 16.8846 60.1158 10.9971L56.2133 0.292332L54.9729 0.254361L53.7326 0.216254L52.561 3.46416C47.8609 16.4936 45.8992 21.8012 45.8178 21.7079C45.7396 21.6182 43.2792 14.2413 39.4153 2.51187L38.6616 0.224039H36.8298C35.1494 0.224039 35.0058 0.243571 35.0912 0.460881ZM78.742 14.634V29.0439H80.4933H82.2447V24.5935V20.1431L84.3613 17.9007C85.5253 16.6675 86.5204 15.6584 86.5725 15.6584C86.6246 15.6584 88.8718 18.2541 91.5665 21.4267C94.2611 24.5992 96.8313 27.611 97.2779 28.1195L98.0901 29.0439H100.045C101.12 29.0439 102 28.9958 102 28.9369C102 28.8781 99.0367 25.3424 95.4149 21.0796C91.7931 16.8169 88.8298 13.295 88.8298 13.2529C88.8298 13.1766 99.0275 2.29729 100.373 0.937569L101.087 0.216936L98.8396 0.254634L96.5924 0.292332L89.4536 7.93943L82.3147 15.5865L82.2786 7.90528L82.2423 0.224039H80.4922H78.742V14.634ZM29.8751 1.01324L30.1943 1.32438V15.0437V28.7631L29.8751 29.0742L29.5561 29.3854L16.0044 29.4261C8.551 29.4483 2.18124 29.4287 1.84932 29.3824C1.36791 29.315 1.19081 29.2101 0.974201 28.8636C0.710236 28.4417 0.70239 28.0486 0.70197 15.0843C0.701549 4.83904 0.74134 1.65397 0.873182 1.37192C1.22598 0.616863 0.751569 0.639263 15.7241 0.671908L29.5561 0.702093L29.8751 1.01324ZM17.8217 6.4647C17.7491 6.6006 16.5057 10.5101 15.0583 15.1523C13.0329 21.6491 12.4652 23.6299 12.5927 23.7542C12.7073 23.8659 12.8273 23.8735 12.9811 23.7789C13.2158 23.6345 18.5279 6.88675 18.4589 6.50854C18.4043 6.20873 17.9741 6.17896 17.8217 6.4647ZM7.53059 11.5276C5.62399 13.3875 4.06402 14.9707 4.06402 15.0458C4.06402 15.1209 5.62777 16.7059 7.53899 18.5679C10.1585 21.1201 11.0725 21.9317 11.2519 21.8646C11.3827 21.8156 11.4898 21.7048 11.4898 21.6183C11.4898 21.5319 10.0397 20.0484 8.26728 18.3218C6.4949 16.5952 5.04478 15.121 5.04478 15.0459C5.04478 14.9708 6.50611 13.4838 8.29208 11.7415C11.1015 9.00084 11.5147 8.54492 11.3572 8.35984C11.2572 8.24224 11.1352 8.14608 11.0863 8.14608C11.0374 8.14608 9.43733 9.6678 7.53059 11.5276ZM19.6085 8.35984C19.451 8.54492 19.8642 9.00084 22.6737 11.7415C24.4596 13.4838 25.921 14.9698 25.921 15.0437C25.921 15.1176 24.4564 16.6068 22.6665 18.353C19.5725 21.3713 19.4241 21.5395 19.6562 21.7659C19.8882 21.992 20.0728 21.8355 23.401 18.5931C25.3264 16.7172 26.9017 15.1199 26.9017 15.0437C26.9017 14.8973 20.0265 8.14608 19.8774 8.14608C19.8296 8.14608 19.7086 8.24224 19.6085 8.35984Z" fill="black"/>
</svg>
